<svg width="32" height="32" viewBox="0 0 32 32" fill="none" xmlns="http://www.w3.org/2000/svg">
<path d="M15.999 28C22.6264 28 27.999 22.6274 27.999 16C27.999 9.37258 22.6264 4 15.999 4C9.37161 4 3.99902 9.37258 3.99902 16C3.99902 22.6274 9.37161 28 15.999 28Z" stroke="#7678ED" stroke-width="2.5" stroke-linecap="round" stroke-linejoin="round"/>
<path d="M15.999 23.2C19.9755 23.2 23.199 19.9765 23.199 16C23.199 12.0236 19.9755 8.8 15.999 8.8C12.0226 8.8 8.79902 12.0236 8.79902 16C8.79902 19.9765 12.0226 23.2 15.999 23.2Z" stroke="#7678ED" stroke-width="2.5" stroke-linecap="round" stroke-linejoin="round"/>
<path d="M15.999 18.4C17.3245 18.4 18.399 17.3255 18.399 16C18.399 14.6745 17.3245 13.6 15.999 13.6C14.6735 13.6 13.599 14.6745 13.599 16C13.599 17.3255 14.6735 18.4 15.999 18.4Z" stroke="#7678ED" stroke-width="2.5" stroke-linecap="round" stroke-linejoin="round"/>
</svg>
