<svg width="40" height="40" viewBox="0 0 40 40" fill="none" xmlns="http://www.w3.org/2000/svg">
<g clip-path="url(#clip0_13_7009)">
<path d="M20 30C21.0355 30 21.875 29.1605 21.875 28.125C21.875 27.0895 21.0355 26.25 20 26.25C18.9645 26.25 18.125 27.0895 18.125 28.125C18.125 29.1605 18.9645 30 20 30Z" fill="#2A2A2A"/>
<path d="M20 22.5V21.25C22.7609 21.25 25 19.2906 25 16.875C25 14.4594 22.7609 12.5 20 12.5C17.2391 12.5 15 14.4594 15 16.875V17.5" stroke="#2A2A2A" stroke-width="2.5" stroke-linecap="round" stroke-linejoin="round"/>
<path d="M20 35C28.2843 35 35 28.2843 35 20C35 11.7157 28.2843 5 20 5C11.7157 5 5 11.7157 5 20C5 28.2843 11.7157 35 20 35Z" stroke="#2A2A2A" stroke-width="2.5" stroke-linecap="round" stroke-linejoin="round"/>
</g>
<defs>
<clipPath id="clip0_13_7009">
<rect width="40" height="40" fill="white"/>
</clipPath>
</defs>
</svg>
