<svg width="32" height="32" viewBox="0 0 32 32" fill="none" xmlns="http://www.w3.org/2000/svg">
<path d="M16.0003 28L15.8669 27.7999C14.9407 26.4106 14.4776 25.716 13.8658 25.2131C13.3241 24.7679 12.7 24.4339 12.0291 24.2301C11.2713 24 10.4365 24 8.76676 24H6.93366C5.44019 24 4.69345 24 4.12302 23.7094C3.62125 23.4537 3.2133 23.0457 2.95764 22.544C2.66699 21.9735 2.66699 21.2268 2.66699 19.7333V8.26667C2.66699 6.77319 2.66699 6.02646 2.95764 5.45603C3.2133 4.95426 3.62125 4.54631 4.12302 4.29065C4.69345 4 5.44019 4 6.93366 4H7.46699C10.4539 4 11.9474 4 13.0883 4.5813C14.0918 5.09262 14.9077 5.90852 15.419 6.91205C16.0003 8.05291 16.0003 9.54639 16.0003 12.5333M16.0003 28V12.5333M16.0003 28L16.1337 27.7999C17.0599 26.4106 17.523 25.716 18.1349 25.2131C18.6765 24.7679 19.3006 24.4339 19.9715 24.2301C20.7293 24 21.5642 24 23.2339 24H25.067C26.5605 24 27.3072 24 27.8776 23.7094C28.3794 23.4537 28.7873 23.0457 29.043 22.544C29.3337 21.9735 29.3337 21.2268 29.3337 19.7333V8.26667C29.3337 6.77319 29.3337 6.02646 29.043 5.45603C28.7873 4.95426 28.3794 4.54631 27.8776 4.29065C27.3072 4 26.5605 4 25.067 4H24.5337C21.5467 4 20.0532 4 18.9124 4.5813C17.9088 5.09262 17.0929 5.90852 16.5816 6.91205C16.0003 8.05291 16.0003 9.54639 16.0003 12.5333" stroke="#F7B801" stroke-width="2.5" stroke-linecap="round" stroke-linejoin="round"/>
</svg>
