<svg width="32" height="32" viewBox="0 0 32 32" fill="none" xmlns="http://www.w3.org/2000/svg">
<g clip-path="url(#clip0_2003_185)">
<path d="M10.9993 5.99996C10.9993 4.15901 12.4917 2.66663 14.3327 2.66663C16.1736 2.66663 17.666 4.15901 17.666 5.99996V7.99996H18.9993C20.8631 7.99996 21.795 7.99996 22.5301 8.30444C23.5102 8.71042 24.2889 9.48911 24.6949 10.4692C24.9993 11.2043 24.9993 12.1362 24.9993 14H26.9993C28.8403 14 30.3327 15.4923 30.3327 17.3333C30.3327 19.1742 28.8403 20.6666 26.9993 20.6666H24.9993V22.9333C24.9993 25.1735 24.9993 26.2936 24.5634 27.1493C24.1799 27.9019 23.568 28.5138 22.8153 28.8973C21.9597 29.3333 20.8396 29.3333 18.5993 29.3333H17.666V27C17.666 25.3431 16.3229 24 14.666 24C13.0092 24 11.666 25.3431 11.666 27V29.3333H10.066C7.82581 29.3333 6.7057 29.3333 5.85005 28.8973C5.09741 28.5138 4.48548 27.9019 4.10199 27.1493C3.66602 26.2936 3.66602 25.1735 3.66602 22.9333V20.6666H5.66602C7.50696 20.6666 8.99935 19.1742 8.99935 17.3333C8.99935 15.4923 7.50696 14 5.66602 14H3.66602C3.66602 12.1362 3.66602 11.2043 3.9705 10.4692C4.37647 9.48911 5.15517 8.71042 6.13528 8.30444C6.87037 7.99996 7.80225 7.99996 9.66601 7.99996H10.9993V5.99996Z" stroke="#71C86E" stroke-width="2.5" stroke-linecap="round" stroke-linejoin="round"/>
</g>
<defs>
<clipPath id="clip0_2003_185">
<rect width="32" height="32" fill="white"/>
</clipPath>
</defs>
</svg>
